<mxfile host="Electron" modified="2024-01-25T11:02:38.444Z" agent="Mozilla/5.0 (Windows NT 10.0; Win64; x64) AppleWebKit/537.36 (KHTML, like Gecko) draw.io/22.1.21 Chrome/120.0.6099.109 Electron/28.1.0 Safari/537.36" etag="dwZC4uWRaHYHgHoDNLl3" version="22.1.21" type="device">
  <diagram name="EN" id="xldEnZR020VYm00dPpNL">
    <mxGraphModel dx="1434" dy="836" grid="1" gridSize="10" guides="1" tooltips="1" connect="1" arrows="1" fold="1" page="1" pageScale="1" pageWidth="827" pageHeight="1169" math="0" shadow="0">
      <root>
        <mxCell id="0" />
        <mxCell id="1" parent="0" />
        <mxCell id="k9TT9UojLHm3JJfoYClC-9" style="edgeStyle=orthogonalEdgeStyle;rounded=0;orthogonalLoop=1;jettySize=auto;html=1;" edge="1" parent="1" source="k9TT9UojLHm3JJfoYClC-1" target="k9TT9UojLHm3JJfoYClC-2">
          <mxGeometry relative="1" as="geometry" />
        </mxCell>
        <mxCell id="k9TT9UojLHm3JJfoYClC-10" style="edgeStyle=orthogonalEdgeStyle;rounded=0;orthogonalLoop=1;jettySize=auto;html=1;entryX=0.5;entryY=0;entryDx=0;entryDy=0;" edge="1" parent="1" source="k9TT9UojLHm3JJfoYClC-1" target="k9TT9UojLHm3JJfoYClC-3">
          <mxGeometry relative="1" as="geometry" />
        </mxCell>
        <mxCell id="k9TT9UojLHm3JJfoYClC-1" value="&lt;h1&gt;System timers&lt;/h1&gt;&lt;div&gt;- TON&lt;br&gt;- TOF&lt;/div&gt;&lt;div&gt;- another standart timers from IDE library&lt;/div&gt;" style="text;html=1;strokeColor=none;fillColor=none;spacing=5;spacingTop=-20;whiteSpace=wrap;overflow=hidden;rounded=0;" vertex="1" parent="1">
          <mxGeometry x="110" y="10" width="190" height="120" as="geometry" />
        </mxCell>
        <mxCell id="k9TT9UojLHm3JJfoYClC-2" value="&lt;h1&gt;Hardware&lt;/h1&gt;&lt;div&gt;For Siemens S7-300, Omron CJ/CP and another old PLC timers use a hardware solution with a unique number for each timer, have limit the number of timers in the system.&lt;/div&gt;&lt;div&gt;&lt;br&gt;&lt;/div&gt;&lt;div&gt;+ high speed and accucary&lt;/div&gt;&lt;div&gt;&lt;br&gt;&lt;/div&gt;&lt;div&gt;- only TIME format, not supported native on HMI&lt;/div&gt;&lt;div&gt;- only unique name for each copy&lt;br&gt;- only limited state information&lt;br&gt;-&amp;nbsp;can work incorrectly in some cases&lt;/div&gt;" style="text;html=1;strokeColor=none;fillColor=none;spacing=5;spacingTop=-20;whiteSpace=wrap;overflow=hidden;rounded=0;" vertex="1" parent="1">
          <mxGeometry x="20" y="180" width="190" height="280" as="geometry" />
        </mxCell>
        <mxCell id="k9TT9UojLHm3JJfoYClC-3" value="&lt;h1&gt;Software&lt;/h1&gt;&lt;div&gt;For Siemens S-1200/1500, Omron NX, B&amp;amp;R and all CoDeSyS-based PLC use a software solution without limit of numbers un system.&lt;/div&gt;&lt;div&gt;&lt;br&gt;&lt;/div&gt;&lt;div&gt;+ use hardware RTC for calc time&lt;/div&gt;&lt;div&gt;+ can be used in FB with many copies of block&lt;/div&gt;&lt;div&gt;&lt;br&gt;&lt;/div&gt;&lt;div&gt;- only TIME format, not sopported native on HMI&lt;/div&gt;&lt;div&gt;- only limited state infromation&lt;/div&gt;&lt;div&gt;- can work incorrectly in some cases&lt;/div&gt;" style="text;html=1;strokeColor=none;fillColor=none;spacing=5;spacingTop=-20;whiteSpace=wrap;overflow=hidden;rounded=0;" vertex="1" parent="1">
          <mxGeometry x="230" y="180" width="190" height="280" as="geometry" />
        </mxCell>
        <mxCell id="k9TT9UojLHm3JJfoYClC-11" style="edgeStyle=orthogonalEdgeStyle;rounded=0;orthogonalLoop=1;jettySize=auto;html=1;entryX=0.5;entryY=0;entryDx=0;entryDy=0;" edge="1" parent="1" source="k9TT9UojLHm3JJfoYClC-4" target="k9TT9UojLHm3JJfoYClC-5">
          <mxGeometry relative="1" as="geometry" />
        </mxCell>
        <mxCell id="k9TT9UojLHm3JJfoYClC-12" style="edgeStyle=orthogonalEdgeStyle;rounded=0;orthogonalLoop=1;jettySize=auto;html=1;entryX=0.5;entryY=0;entryDx=0;entryDy=0;" edge="1" parent="1" source="k9TT9UojLHm3JJfoYClC-4" target="k9TT9UojLHm3JJfoYClC-7">
          <mxGeometry relative="1" as="geometry" />
        </mxCell>
        <mxCell id="k9TT9UojLHm3JJfoYClC-4" value="&lt;h1&gt;Self-made timers&lt;/h1&gt;&lt;div&gt;- TON, TOF and all another concept, whatever you want&lt;/div&gt;&lt;div&gt;- used with custom library or copied from project to project manually&lt;/div&gt;" style="text;html=1;strokeColor=none;fillColor=none;spacing=5;spacingTop=-20;whiteSpace=wrap;overflow=hidden;rounded=0;" vertex="1" parent="1">
          <mxGeometry x="520" y="20" width="220" height="120" as="geometry" />
        </mxCell>
        <mxCell id="k9TT9UojLHm3JJfoYClC-5" value="&lt;h1&gt;Use pulse/clock&lt;/h1&gt;&lt;div&gt;Self-generaten clock/pulse: you have one problem: loss of measurement accuracy at large distances. If the system allows the accuracy of the timers with an error of up to 100-200 ms for every 10 seconds (on average) and you do not use timers lasting more than 10 minutes, then this solution will do great for you.&lt;/div&gt;&lt;div&gt;For more accucary use system clock/pulses.&lt;/div&gt;&lt;div&gt;&lt;br&gt;&lt;/div&gt;&lt;div&gt;&lt;br&gt;&lt;/div&gt;" style="text;html=1;strokeColor=none;fillColor=none;spacing=5;spacingTop=-20;whiteSpace=wrap;overflow=hidden;rounded=0;" vertex="1" parent="1">
          <mxGeometry x="430" y="180" width="190" height="260" as="geometry" />
        </mxCell>
        <mxCell id="k9TT9UojLHm3JJfoYClC-6" value="&lt;div style=&quot;border-color: var(--border-color); text-align: left;&quot;&gt;+ may have unlimited types, format and copies&lt;/div&gt;&lt;div style=&quot;border-color: var(--border-color); text-align: left;&quot;&gt;+ may have FC+UDT or FB format for use&lt;/div&gt;&lt;div style=&quot;border-color: var(--border-color); text-align: left;&quot;&gt;+ you can separate SP and commands in another memory allocation for optimized communcation&lt;br style=&quot;border-color: var(--border-color);&quot;&gt;+ use INT/FLOAT data types, great supported on all HMI&lt;/div&gt;&lt;div style=&quot;border-color: var(--border-color); text-align: left;&quot;&gt;+ you can add additional information, e.g. actual time, estimate time, percent of progress&lt;br style=&quot;border-color: var(--border-color);&quot;&gt;+ you can add additional controls, e.g. reset, pause or output signal on X percents of all time&lt;br&gt;+ you can add timers with INT days, hours, mintues and second&lt;/div&gt;" style="text;html=1;strokeColor=none;fillColor=none;align=center;verticalAlign=middle;whiteSpace=wrap;rounded=0;" vertex="1" parent="1">
          <mxGeometry x="440" y="470" width="180" height="290" as="geometry" />
        </mxCell>
        <mxCell id="k9TT9UojLHm3JJfoYClC-7" value="&lt;h1&gt;Use RTC&lt;/h1&gt;&lt;div&gt;Use integrate RTC: you have another problem related to speed. For each timer, it is necessary to carry out converting from a person-convertible time format to the DataAndTime standard for comparison with the current PLC time. You will need more surgery to bring information about the state of the process in a person-condemned appearance. All this will affect the general speed of the system, but will provide maximum accuracy at any measurement distances.&lt;/div&gt;&lt;div&gt;&lt;br&gt;&lt;/div&gt;&lt;div&gt;&lt;br&gt;&lt;/div&gt;" style="text;html=1;strokeColor=none;fillColor=none;spacing=5;spacingTop=-20;whiteSpace=wrap;overflow=hidden;rounded=0;" vertex="1" parent="1">
          <mxGeometry x="630" y="180" width="190" height="280" as="geometry" />
        </mxCell>
        <mxCell id="k9TT9UojLHm3JJfoYClC-8" value="&lt;div style=&quot;border-color: var(--border-color); text-align: left;&quot;&gt;- get more memory&lt;br&gt;- get more instruction and processor time&lt;/div&gt;&lt;div style=&quot;border-color: var(--border-color); text-align: left;&quot;&gt;- get more lines in code&lt;/div&gt;&lt;div style=&quot;border-color: var(--border-color); text-align: left;&quot;&gt;- get more attention when using&lt;/div&gt;&lt;div style=&quot;border-color: var(--border-color); text-align: left;&quot;&gt;- get more effort to declare and placement in memory&lt;/div&gt;&lt;div style=&quot;border-color: var(--border-color); text-align: left;&quot;&gt;&lt;br&gt;&lt;/div&gt;&lt;div style=&quot;border-color: var(--border-color); text-align: left;&quot;&gt;- not-RTC variants can&#39;t normally control time less PLC_CYCLE_TIME*3 in most implementation options&lt;/div&gt;&lt;div style=&quot;border-color: var(--border-color); text-align: left;&quot;&gt;&lt;br&gt;&lt;/div&gt;&lt;div style=&quot;border-color: var(--border-color); text-align: left;&quot;&gt;- not-RTC variants can have deviation about 10-50 second on every full hour of measurment with self-made pulses and about 5-30 second with pulses from system&lt;/div&gt;" style="text;html=1;strokeColor=none;fillColor=none;align=center;verticalAlign=middle;whiteSpace=wrap;rounded=0;" vertex="1" parent="1">
          <mxGeometry x="635" y="470" width="180" height="270" as="geometry" />
        </mxCell>
      </root>
    </mxGraphModel>
  </diagram>
</mxfile>
